<svg xmlns="http://www.w3.org/2000/svg" viewBox="0 0 720 300" role="img"><title>One season with a finite grid and a marked endpoint</title><g fill="none" stroke="#2b211a" stroke-linecap="round" stroke-linejoin="round"><circle cx="110" cy="78" r="9" stroke-width="4"/><circle cx="152" cy="78" r="9" stroke-width="4"/><circle cx="194" cy="78" r="9" stroke-width="4"/><circle cx="236" cy="78" r="9" stroke-width="4"/><circle cx="278" cy="78" r="9" stroke-width="4"/><circle cx="320" cy="78" r="9" stroke-width="4"/><circle cx="110" cy="118" r="9" fill="#e0442e" stroke-width="4"/><circle cx="152" cy="118" r="9" stroke-width="4"/><circle cx="194" cy="118" r="9" stroke-width="4"/><circle cx="236" cy="118" r="9" stroke-width="4"/><circle cx="278" cy="118" r="9" stroke-width="4"/><circle cx="320" cy="118" r="9" stroke-width="4"/><circle cx="110" cy="158" r="9" stroke-width="4"/><circle cx="152" cy="158" r="9" stroke-width="4"/><circle cx="194" cy="158" r="9" fill="#e0442e" stroke-width="4"/><circle cx="236" cy="158" r="9" stroke-width="4"/><circle cx="278" cy="158" r="9" stroke-width="4"/><circle cx="320" cy="158" r="9" stroke-width="4"/><circle cx="110" cy="198" r="9" stroke-width="4"/><circle cx="152" cy="198" r="9" stroke-width="4"/><circle cx="194" cy="198" r="9" stroke-width="4"/><circle cx="236" cy="198" r="9" stroke-width="4"/><circle cx="278" cy="198" r="9" fill="#e0442e" stroke-width="4"/><circle cx="320" cy="198" r="9" stroke-width="4"/><circle cx="110" cy="238" r="9" stroke-width="4"/><circle cx="152" cy="238" r="9" stroke-width="4"/><circle cx="194" cy="238" r="9" stroke-width="4"/><circle cx="236" cy="238" r="9" stroke-width="4"/><circle cx="278" cy="238" r="9" stroke-width="4"/><circle cx="320" cy="238" r="9" stroke-width="4"/><path d="M428 184h180M458 176v16M488 176v16M518 176v16M548 176v16M578 176v16" stroke-width="6"/><path d="M608 184l20-14v28z" fill="#e6a413" stroke="#2b211a" stroke-width="4"/></g></svg>
